# This file uses centimeters as units for non-parametric coordinates.

mtllib Roca3.mtl
g default
v -1.020886 -0.000000 0.684106
v 0.263431 -0.000000 0.694117
v -1.020755 0.000000 -0.594923
v 0.435358 0.000000 -0.483618
v -0.051434 0.932403 0.465628
v -1.038123 1.018946 -0.330169
v -0.083144 0.932403 -0.248867
v 0.223405 0.544125 0.804028
v -1.092890 0.544125 0.830918
v 0.427805 0.544125 -0.588266
v -1.116583 0.544125 -0.735462
v -0.229011 0.000000 -0.802576
v -0.419118 -0.000000 0.972705
v -0.704018 1.211368 0.714224
v -0.492929 1.222925 -0.563458
v -0.387332 0.544125 1.119517
v -0.202331 0.544125 -0.968751
v -1.181771 0.000000 -0.003915
v 0.674025 0.000000 -0.003915
v 0.341336 0.932403 -0.000000
v -1.265431 0.725933 -0.000000
v 0.676785 0.544125 -0.000000
v -1.323744 0.544125 -0.000000
v -0.645187 1.397213 -0.000000
v 0.360783 0.224899 0.804028
v 0.565182 0.224899 -0.588266
v -1.117320 0.224899 -0.735462
v -1.093627 0.224899 0.830918
v -0.387332 0.224899 1.119517
v -0.202331 0.224899 -0.968751
v 0.814163 0.224899 0.000000
v -1.324481 0.224899 0.000000
v -0.135828 1.243402 -0.000000
v -0.926550 1.146414 -0.000000
v -1.088676 0.910516 0.492157
vt 0.887986 0.132388
vt 0.808794 0.117371
vt 0.865376 0.086955
vt 0.928479 0.039703
vt 0.996145 0.150534
vt 0.977714 0.156425
vt 0.922260 0.058003
vt 0.961242 0.283280
vt 0.835731 0.360901
vt 0.832294 0.342395
vt 0.943795 0.270098
vt 0.726762 0.337323
vt 0.650448 0.220766
vt 0.670529 0.218685
vt 0.740662 0.320012
vt 0.688771 0.073796
vt 0.795224 0.008970
vt 0.799142 0.030691
vt 0.701953 0.086725
vt 0.931784 0.246675
vt 0.880026 0.216286
vt 0.962296 0.158436
vt 0.745893 0.294593
vt 0.784730 0.227605
vt 0.824666 0.268792
vt 0.828917 0.317582
vt 0.715123 0.097013
vt 0.777227 0.113002
vt 0.755020 0.175909
vt 0.686325 0.216156
vt 0.912239 0.070637
vt 0.803010 0.060444
vt 0.801582 0.052228
vt 0.819118 0.209192
vt 0.812802 0.152821
vn -0.160978 0.797628 0.581270
vn -0.671295 0.740104 -0.040109
vn -0.773151 0.519741 0.363465
vn -0.676765 -0.543702 0.496364
vn -0.033960 -0.568470 0.822003
vn -0.708433 -0.267451 0.653141
vn 0.021837 -0.255353 0.966601
vn 0.556774 -0.541790 0.629656
vn 0.822978 -0.566323 0.044558
vn 0.685187 -0.144207 0.713949
vn 0.994841 -0.088635 0.049345
vn 0.075090 -0.596068 -0.799415
vn 0.113072 -0.268030 -0.956752
vn 0.579430 -0.578114 -0.574496
vn 0.744339 -0.154725 -0.649630
vn -0.860902 -0.508694 -0.008831
vn -0.967951 -0.251126 -0.002521
vn -0.587536 -0.595433 -0.547960
vn -0.661725 -0.288701 -0.691934
vn 0.593739 0.439873 0.673784
vn 0.507512 0.711818 0.485537
vn 0.058278 0.337804 0.939411
vn -0.160978 0.797628 0.581270
vn 0.546556 0.658854 -0.516903
vn 0.603030 0.797003 -0.033775
vn 0.632488 0.479400 -0.608387
vn 0.818201 0.574213 0.028766
vn -0.655577 0.655675 -0.374578
vn 0.034003 0.799906 -0.599161
vn -0.664923 0.232827 -0.709697
vn 0.167323 0.376003 -0.911386
vn -0.720327 0.187339 0.667857
vn -0.773151 0.519741 0.363465
vn -0.987407 0.158109 -0.005443
vn -0.907477 0.419953 -0.011169
vn 0.507512 0.711818 0.485537
vn 0.603030 0.797003 -0.033775
vn 0.514370 0.855860 -0.054108
vn -0.033960 -0.568470 0.822003
vn 0.556774 -0.541790 0.629656
vn 0.021837 -0.255353 0.966601
vn 0.685187 -0.144207 0.713949
vn -0.587536 -0.595433 -0.547960
vn -0.661725 -0.288701 -0.691934
vn 0.075090 -0.596068 -0.799415
vn 0.113072 -0.268030 -0.956752
vn -0.773151 0.519741 0.363465
vn -0.720327 0.187339 0.667857
vn -0.160978 0.797628 0.581270
vn 0.058278 0.337804 0.939411
vn 0.034003 0.799906 -0.599161
vn 0.546556 0.658854 -0.516903
vn 0.167323 0.376003 -0.911386
vn 0.632488 0.479400 -0.608387
vn -0.219907 0.974024 -0.054026
vn 0.034003 0.799906 -0.599161
vn -0.671295 0.740104 -0.040109
vn 0.579430 -0.578114 -0.574496
vn 0.744339 -0.154725 -0.649630
vn 0.822978 -0.566323 0.044558
vn 0.994841 -0.088635 0.049345
vn -0.860902 -0.508694 -0.008831
vn -0.676765 -0.543702 0.496364
vn -0.967951 -0.251126 -0.002521
vn -0.708433 -0.267451 0.653141
vn 0.507512 0.711818 0.485537
vn 0.593739 0.439873 0.673784
vn 0.603030 0.797003 -0.033775
vn 0.818201 0.574213 0.028766
vn -0.907477 0.419953 -0.011169
vn -0.655577 0.655675 -0.374578
vn -0.987407 0.158109 -0.005443
vn -0.664923 0.232827 -0.709697
vn 0.603030 0.797003 -0.033775
vn 0.546556 0.658854 -0.516903
vn 0.514370 0.855860 -0.054108
vn 0.058278 0.337804 0.939411
vn -0.720327 0.187339 0.667857
vn 0.021837 -0.255353 0.966601
vn -0.708433 -0.267451 0.653141
vn 0.994841 -0.088635 0.049345
vn 0.818201 0.574213 0.028766
vn 0.685187 -0.144207 0.713949
vn 0.593739 0.439873 0.673784
vn 0.167323 0.376003 -0.911386
vn 0.632488 0.479400 -0.608387
vn 0.113072 -0.268030 -0.956752
vn 0.744339 -0.154725 -0.649630
vn -0.967951 -0.251126 -0.002521
vn -0.987407 0.158109 -0.005443
vn -0.661725 -0.288701 -0.691934
vn -0.664923 0.232827 -0.709697
vn 0.685187 -0.144207 0.713949
vn 0.593739 0.439873 0.673784
vn 0.021837 -0.255353 0.966601
vn 0.058278 0.337804 0.939411
vn -0.661725 -0.288701 -0.691934
vn -0.664923 0.232827 -0.709697
vn 0.113072 -0.268030 -0.956752
vn 0.167323 0.376003 -0.911386
vn 0.632488 0.479400 -0.608387
vn 0.818201 0.574213 0.028766
vn 0.744339 -0.154725 -0.649630
vn 0.994841 -0.088635 0.049345
vn -0.708433 -0.267451 0.653141
vn -0.720327 0.187339 0.667857
vn -0.967951 -0.251126 -0.002521
vn -0.987407 0.158109 -0.005443
vn 0.546556 0.658854 -0.516903
vn 0.034003 0.799906 -0.599161
vn 0.514370 0.855860 -0.054108
vn 0.514370 0.855860 -0.054108
vn -0.160978 0.797628 0.581270
vn 0.507512 0.711818 0.485537
vn -0.655577 0.655675 -0.374578
vn -0.907477 0.419953 -0.011169
vn -0.671295 0.740104 -0.040109
vn -0.671295 0.740104 -0.040109
vn -0.907477 0.419953 -0.011169
vn -0.773151 0.519741 0.363465
vn 0.034003 0.799906 -0.599161
vn -0.219907 0.974024 -0.054026
vn 0.514370 0.855860 -0.054108
vn 0.514370 0.855860 -0.054108
vn -0.219907 0.974024 -0.054026
vn -0.160978 0.797628 0.581270
vn -0.160978 0.797628 0.581270
vn -0.219907 0.974024 -0.054026
vn -0.671295 0.740104 -0.040109
vn 0.034003 0.799906 -0.599161
vn -0.655577 0.655675 -0.374578
vn -0.671295 0.740104 -0.040109
s off
g Rock03
usemtl Rock02SG
f 14/1/1 34/2/2 35/3/3
s 1
f 1/4/4 13/5/5 28/7/6
f 28/7/6 13/5/5 29/6/7
s 2
f 2/8/8 19/9/9 25/11/10
f 25/11/10 19/9/9 31/10/11
s 3
f 12/13/12 30/14/13 4/12/14
f 4/12/14 30/14/13 26/15/15
s 4
f 18/17/16 32/18/17 3/16/18
f 3/16/18 32/18/17 27/19/19
s 5
f 8/20/20 5/21/21 16/22/22
f 16/22/22 5/21/21 14/1/23
s 6
f 7/24/24 20/25/25 10/23/26
f 10/23/26 20/25/25 22/26/27
s 7
f 6/28/28 15/29/29 11/27/30
f 11/27/30 15/29/29 17/30/31
s 8
f 9/31/32 35/3/33 23/33/34
f 23/33/34 35/3/33 21/32/35
s off
f 5/21/36 20/25/37 33/34/38
s 9
f 13/5/39 2/8/40 29/6/41
f 29/6/41 2/8/40 25/11/42
s 10
f 3/16/43 27/19/44 12/13/45
f 12/13/45 27/19/44 30/14/46
s 11
f 35/3/47 9/31/48 14/1/49
f 14/1/49 9/31/48 16/22/50
s 12
f 15/29/51 7/24/52 17/30/53
f 17/30/53 7/24/52 10/23/54
s off
f 24/35/55 15/29/56 34/2/57
s 13
f 4/12/58 26/15/59 19/9/60
f 19/9/60 26/15/59 31/10/61
s 14
f 18/17/62 1/4/63 32/18/64
f 32/18/64 1/4/63 28/7/65
s 15
f 5/21/66 8/20/67 20/25/68
f 20/25/68 8/20/67 22/26/69
s 16
f 21/32/70 6/28/71 23/33/72
f 23/33/72 6/28/71 11/27/73
s off
f 20/25/74 7/24/75 33/34/76
s 17
f 16/22/77 9/31/78 29/6/79
f 29/6/79 9/31/78 28/7/80
s 18
f 31/10/81 22/26/82 25/11/83
f 25/11/83 22/26/82 8/20/84
s 19
f 17/30/85 10/23/86 30/14/87
f 30/14/87 10/23/86 26/15/88
s 20
f 32/18/89 23/33/90 27/19/91
f 27/19/91 23/33/90 11/27/92
s 21
f 25/11/93 8/20/94 29/6/95
f 29/6/95 8/20/94 16/22/96
s 22
f 27/19/97 11/27/98 30/14/99
f 30/14/99 11/27/98 17/30/100
s 23
f 10/23/101 22/26/102 26/15/103
f 26/15/103 22/26/102 31/10/104
s 24
f 28/7/105 9/31/106 32/18/107
f 32/18/107 9/31/106 23/33/108
s off
f 7/24/109 15/29/110 33/34/111
f 33/34/112 14/1/113 5/21/114
f 6/28/115 21/32/116 34/2/117
f 34/2/118 21/32/119 35/3/120
f 15/29/121 24/35/122 33/34/123
f 33/34/124 24/35/125 14/1/126
f 14/1/127 24/35/128 34/2/129
f 15/29/130 6/28/131 34/2/132
g default
v -1.020886 -0.000000 0.684106
v 0.263431 -0.000000 0.694117
v -1.020755 0.000000 -0.594923
v 0.435358 0.000000 -0.483618
v -0.051434 0.932403 0.465628
v -1.038123 1.018946 -0.330169
v -0.083144 0.932403 -0.248867
v 0.223405 0.544125 0.804028
v -1.092890 0.544125 0.830918
v 0.427805 0.544125 -0.588266
v -1.116583 0.544125 -0.735462
v -0.229011 0.000000 -0.802576
v -0.419118 -0.000000 0.972705
v -0.704018 1.211368 0.714224
v -0.492929 1.222925 -0.563458
v -0.387332 0.544125 1.119517
v -0.202331 0.544125 -0.968751
v -1.181771 0.000000 -0.003915
v 0.674025 0.000000 -0.003915
v 0.341336 0.932403 -0.000000
v -1.265431 0.725933 -0.000000
v 0.676785 0.544125 -0.000000
v -1.323744 0.544125 -0.000000
v -0.645187 1.397213 -0.000000
v 0.360783 0.224899 0.804028
v 0.565182 0.224899 -0.588266
v -1.117320 0.224899 -0.735462
v -1.093627 0.224899 0.830918
v -0.387332 0.224899 1.119517
v -0.202331 0.224899 -0.968751
v 0.814163 0.224899 0.000000
v -1.324481 0.224899 0.000000
v -0.135828 1.243402 -0.000000
v -0.926550 1.146414 -0.000000
v -1.088676 0.910516 0.492157
vt 0.887986 0.132388
vt 0.808794 0.117371
vt 0.865376 0.086955
vt 0.928479 0.039703
vt 0.996145 0.150534
vt 0.977714 0.156425
vt 0.922260 0.058003
vt 0.961242 0.283280
vt 0.835731 0.360901
vt 0.832294 0.342395
vt 0.943795 0.270098
vt 0.726762 0.337323
vt 0.650448 0.220766
vt 0.670529 0.218685
vt 0.740662 0.320012
vt 0.688771 0.073796
vt 0.795224 0.008970
vt 0.799142 0.030691
vt 0.701953 0.086725
vt 0.931784 0.246675
vt 0.880026 0.216286
vt 0.962296 0.158436
vt 0.745893 0.294593
vt 0.784730 0.227605
vt 0.824666 0.268792
vt 0.828917 0.317582
vt 0.715123 0.097013
vt 0.777227 0.113002
vt 0.755020 0.175909
vt 0.686325 0.216156
vt 0.912239 0.070637
vt 0.803010 0.060444
vt 0.801582 0.052228
vt 0.819118 0.209192
vt 0.812802 0.152821
vn -0.160978 0.797628 0.581270
vn -0.671295 0.740104 -0.040109
vn -0.773151 0.519741 0.363465
vn -0.676765 -0.543702 0.496364
vn -0.033960 -0.568470 0.822003
vn -0.708433 -0.267451 0.653141
vn 0.021837 -0.255353 0.966601
vn 0.556774 -0.541790 0.629656
vn 0.822978 -0.566323 0.044558
vn 0.685187 -0.144207 0.713949
vn 0.994841 -0.088635 0.049345
vn 0.075090 -0.596068 -0.799415
vn 0.113072 -0.268030 -0.956752
vn 0.579430 -0.578114 -0.574496
vn 0.744339 -0.154725 -0.649630
vn -0.860902 -0.508694 -0.008831
vn -0.967951 -0.251126 -0.002521
vn -0.587536 -0.595433 -0.547960
vn -0.661725 -0.288701 -0.691934
vn 0.593739 0.439873 0.673784
vn 0.507512 0.711818 0.485537
vn 0.058278 0.337804 0.939411
vn -0.160978 0.797628 0.581270
vn 0.546556 0.658854 -0.516903
vn 0.603030 0.797003 -0.033775
vn 0.632488 0.479400 -0.608387
vn 0.818201 0.574213 0.028766
vn -0.655577 0.655675 -0.374578
vn 0.034003 0.799906 -0.599161
vn -0.664923 0.232827 -0.709697
vn 0.167323 0.376003 -0.911386
vn -0.720327 0.187339 0.667857
vn -0.773151 0.519741 0.363465
vn -0.987407 0.158109 -0.005443
vn -0.907477 0.419953 -0.011169
vn 0.507512 0.711818 0.485537
vn 0.603030 0.797003 -0.033775
vn 0.514370 0.855860 -0.054108
vn -0.033960 -0.568470 0.822003
vn 0.556774 -0.541790 0.629656
vn 0.021837 -0.255353 0.966601
vn 0.685187 -0.144207 0.713949
vn -0.587536 -0.595433 -0.547960
vn -0.661725 -0.288701 -0.691934
vn 0.075090 -0.596068 -0.799415
vn 0.113072 -0.268030 -0.956752
vn -0.773151 0.519741 0.363465
vn -0.720327 0.187339 0.667857
vn -0.160978 0.797628 0.581270
vn 0.058278 0.337804 0.939411
vn 0.034003 0.799906 -0.599161
vn 0.546556 0.658854 -0.516903
vn 0.167323 0.376003 -0.911386
vn 0.632488 0.479400 -0.608387
vn -0.219907 0.974024 -0.054026
vn 0.034003 0.799906 -0.599161
vn -0.671295 0.740104 -0.040109
vn 0.579430 -0.578114 -0.574496
vn 0.744339 -0.154725 -0.649630
vn 0.822978 -0.566323 0.044558
vn 0.994841 -0.088635 0.049345
vn -0.860902 -0.508694 -0.008831
vn -0.676765 -0.543702 0.496364
vn -0.967951 -0.251126 -0.002521
vn -0.708433 -0.267451 0.653141
vn 0.507512 0.711818 0.485537
vn 0.593739 0.439873 0.673784
vn 0.603030 0.797003 -0.033775
vn 0.818201 0.574213 0.028766
vn -0.907477 0.419953 -0.011169
vn -0.655577 0.655675 -0.374578
vn -0.987407 0.158109 -0.005443
vn -0.664923 0.232827 -0.709697
vn 0.603030 0.797003 -0.033775
vn 0.546556 0.658854 -0.516903
vn 0.514370 0.855860 -0.054108
vn 0.058278 0.337804 0.939411
vn -0.720327 0.187339 0.667857
vn 0.021837 -0.255353 0.966601
vn -0.708433 -0.267451 0.653141
vn 0.994841 -0.088635 0.049345
vn 0.818201 0.574213 0.028766
vn 0.685187 -0.144207 0.713949
vn 0.593739 0.439873 0.673784
vn 0.167323 0.376003 -0.911386
vn 0.632488 0.479400 -0.608387
vn 0.113072 -0.268030 -0.956752
vn 0.744339 -0.154725 -0.649630
vn -0.967951 -0.251126 -0.002521
vn -0.987407 0.158109 -0.005443
vn -0.661725 -0.288701 -0.691934
vn -0.664923 0.232827 -0.709697
vn 0.685187 -0.144207 0.713949
vn 0.593739 0.439873 0.673784
vn 0.021837 -0.255353 0.966601
vn 0.058278 0.337804 0.939411
vn -0.661725 -0.288701 -0.691934
vn -0.664923 0.232827 -0.709697
vn 0.113072 -0.268030 -0.956752
vn 0.167323 0.376003 -0.911386
vn 0.632488 0.479400 -0.608387
vn 0.818201 0.574213 0.028766
vn 0.744339 -0.154725 -0.649630
vn 0.994841 -0.088635 0.049345
vn -0.708433 -0.267451 0.653141
vn -0.720327 0.187339 0.667857
vn -0.967951 -0.251126 -0.002521
vn -0.987407 0.158109 -0.005443
vn 0.546556 0.658854 -0.516903
vn 0.034003 0.799906 -0.599161
vn 0.514370 0.855860 -0.054108
vn 0.514370 0.855860 -0.054108
vn -0.160978 0.797628 0.581270
vn 0.507512 0.711818 0.485537
vn -0.655577 0.655675 -0.374578
vn -0.907477 0.419953 -0.011169
vn -0.671295 0.740104 -0.040109
vn -0.671295 0.740104 -0.040109
vn -0.907477 0.419953 -0.011169
vn -0.773151 0.519741 0.363465
vn 0.034003 0.799906 -0.599161
vn -0.219907 0.974024 -0.054026
vn 0.514370 0.855860 -0.054108
vn 0.514370 0.855860 -0.054108
vn -0.219907 0.974024 -0.054026
vn -0.160978 0.797628 0.581270
vn -0.160978 0.797628 0.581270
vn -0.219907 0.974024 -0.054026
vn -0.671295 0.740104 -0.040109
vn 0.034003 0.799906 -0.599161
vn -0.655577 0.655675 -0.374578
vn -0.671295 0.740104 -0.040109
s off
g Rock03
f 49/36/133 69/37/134 70/38/135
s 1
f 36/39/136 48/40/137 63/42/138
f 63/42/138 48/40/137 64/41/139
s 2
f 37/43/140 54/44/141 60/46/142
f 60/46/142 54/44/141 66/45/143
s 3
f 47/48/144 65/49/145 39/47/146
f 39/47/146 65/49/145 61/50/147
s 4
f 53/52/148 67/53/149 38/51/150
f 38/51/150 67/53/149 62/54/151
s 5
f 43/55/152 40/56/153 51/57/154
f 51/57/154 40/56/153 49/36/155
s 6
f 42/59/156 55/60/157 45/58/158
f 45/58/158 55/60/157 57/61/159
s 7
f 41/63/160 50/64/161 46/62/162
f 46/62/162 50/64/161 52/65/163
s 8
f 44/66/164 70/38/165 58/68/166
f 58/68/166 70/38/165 56/67/167
s off
f 40/56/168 55/60/169 68/69/170
s 9
f 48/40/171 37/43/172 64/41/173
f 64/41/173 37/43/172 60/46/174
s 10
f 38/51/175 62/54/176 47/48/177
f 47/48/177 62/54/176 65/49/178
s 11
f 70/38/179 44/66/180 49/36/181
f 49/36/181 44/66/180 51/57/182
s 12
f 50/64/183 42/59/184 52/65/185
f 52/65/185 42/59/184 45/58/186
s off
f 59/70/187 50/64/188 69/37/189
s 13
f 39/47/190 61/50/191 54/44/192
f 54/44/192 61/50/191 66/45/193
s 14
f 53/52/194 36/39/195 67/53/196
f 67/53/196 36/39/195 63/42/197
s 15
f 40/56/198 43/55/199 55/60/200
f 55/60/200 43/55/199 57/61/201
s 16
f 56/67/202 41/63/203 58/68/204
f 58/68/204 41/63/203 46/62/205
s off
f 55/60/206 42/59/207 68/69/208
s 17
f 51/57/209 44/66/210 64/41/211
f 64/41/211 44/66/210 63/42/212
s 18
f 66/45/213 57/61/214 60/46/215
f 60/46/215 57/61/214 43/55/216
s 19
f 52/65/217 45/58/218 65/49/219
f 65/49/219 45/58/218 61/50/220
s 20
f 67/53/221 58/68/222 62/54/223
f 62/54/223 58/68/222 46/62/224
s 21
f 60/46/225 43/55/226 64/41/227
f 64/41/227 43/55/226 51/57/228
s 22
f 62/54/229 46/62/230 65/49/231
f 65/49/231 46/62/230 52/65/232
s 23
f 45/58/233 57/61/234 61/50/235
f 61/50/235 57/61/234 66/45/236
s 24
f 63/42/237 44/66/238 67/53/239
f 67/53/239 44/66/238 58/68/240
s off
f 42/59/241 50/64/242 68/69/243
f 68/69/244 49/36/245 40/56/246
f 41/63/247 56/67/248 69/37/249
f 69/37/250 56/67/251 70/38/252
f 50/64/253 59/70/254 68/69/255
f 68/69/256 59/70/257 49/36/258
f 49/36/259 59/70/260 69/37/261
f 50/64/262 41/63/263 69/37/264
