# This file uses centimeters as units for non-parametric coordinates.

mtllib Roca2.mtl
g default
v -1.312265 -0.000000 0.980735
v 0.718931 -0.000000 0.726467
v -1.476429 -0.000000 -0.999288
v 0.942686 -0.000000 -0.751976
v -0.849250 1.358359 0.788786
v 0.369739 1.534711 0.497978
v -0.909762 1.358359 -0.734533
v 0.565357 1.534711 -0.451331
v 0.678905 0.937081 0.836378
v -1.127547 0.937081 1.127547
v 0.935132 0.937081 -0.856624
v -1.315536 0.937081 -1.139827
v -0.066967 -0.000000 -1.175939
v -0.031786 -0.000000 0.980735
v -0.114794 1.437718 0.722254
v -0.155081 1.437718 -0.936822
v 0.000000 0.937081 1.127547
v -0.040287 0.937081 -1.342115
v -1.794401 -0.000000 -0.003915
v 1.013759 -0.000000 -0.003915
v 0.646744 1.534711 0.000000
v -1.273879 1.358359 -0.000000
v 1.016519 0.937081 0.000000
v -1.679652 0.937081 0.000000
v -0.114794 1.437718 -0.000000
v 0.816282 0.224899 0.836378
v 1.072510 0.224899 -0.856624
v -1.572995 0.224899 -1.139827
v -1.385006 0.224899 1.127547
v 0.000000 0.224899 1.127547
v -0.040287 0.224899 -1.342115
v 1.153897 0.224899 0.000000
v -1.937111 0.224899 0.000000
vt 0.607916 0.666533
vt 0.694646 0.647824
vt 0.719061 0.728330
vt 0.578189 0.777272
vt 0.458438 0.599054
vt 0.678760 0.476420
vt 0.685271 0.500786
vt 0.489410 0.610043
vt 0.846102 0.495110
vt 0.964907 0.613312
vt 0.945272 0.624484
vt 0.833020 0.516369
vt 0.989812 0.776863
vt 0.859331 0.956925
vt 0.843130 0.932306
vt 0.965762 0.773276
vt 0.583240 0.985228
vt 0.429427 0.827254
vt 0.458461 0.818151
vt 0.596545 0.964518
vt 0.789020 0.580609
vt 0.753053 0.662264
vt 0.697043 0.575926
vt 0.896410 0.765560
vt 0.807844 0.731508
vt 0.803332 0.691510
vt 0.875683 0.658165
vt 0.637988 0.909277
vt 0.665944 0.837320
vt 0.765251 0.832014
vt 0.808182 0.878504
vt 0.557044 0.629157
vt 0.524919 0.796017
vn 0.033192 0.883424 0.467398
vn -0.115608 0.993286 -0.004249
vn -0.258770 0.857869 0.443959
vn -0.478549 0.877434 0.033160
vn 0.137924 -0.546368 0.826111
vn 0.171618 -0.268288 0.947929
vn -0.447621 -0.585813 0.675617
vn -0.557509 -0.181808 0.810018
vn 0.840343 -0.525915 0.131289
vn 0.975499 -0.172915 0.136020
vn 0.578903 -0.555519 0.596884
vn 0.693265 -0.213668 0.688281
vn 0.110597 -0.583605 -0.804471
vn 0.137789 -0.275311 -0.951429
vn 0.651217 -0.605006 -0.458132
vn 0.801285 -0.228388 -0.552976
vn -0.841884 -0.535399 0.067679
vn -0.992745 -0.099452 0.067576
vn -0.526966 -0.607388 -0.594464
vn -0.662628 -0.183786 -0.726049
vn 0.636394 0.349674 0.687554
vn 0.285295 0.891677 0.351452
vn 0.175100 0.326805 0.928729
vn 0.033192 0.883424 0.467398
vn 0.737459 0.377785 -0.559851
vn 0.380058 0.890472 -0.250231
vn 0.919361 0.369706 0.134510
vn 0.487181 0.868576 0.090717
vn -0.535728 0.450680 -0.714061
vn -0.301788 0.888425 -0.345869
vn 0.136821 0.364608 -0.921054
vn 0.018718 0.878927 -0.476589
vn -0.258770 0.857869 0.443959
vn -0.478549 0.877434 0.033160
vn -0.432188 0.417036 0.799559
vn -0.846926 0.528402 0.059221
vn 0.033192 0.883424 0.467398
vn 0.285295 0.891677 0.351452
vn -0.115608 0.993286 -0.004249
vn 0.487181 0.868576 0.090717
vn 0.137924 -0.546368 0.826111
vn 0.578903 -0.555519 0.596884
vn 0.171618 -0.268288 0.947929
vn 0.693265 -0.213668 0.688281
vn 0.110597 -0.583605 -0.804471
vn -0.526966 -0.607388 -0.594464
vn 0.137789 -0.275311 -0.951429
vn -0.662628 -0.183786 -0.726049
vn 0.033192 0.883424 0.467398
vn -0.258770 0.857869 0.443959
vn 0.175100 0.326805 0.928729
vn -0.432188 0.417036 0.799559
vn 0.380058 0.890472 -0.250231
vn 0.737459 0.377785 -0.559851
vn 0.018718 0.878927 -0.476589
vn 0.136821 0.364608 -0.921054
vn 0.018718 0.878927 -0.476589
vn -0.301788 0.888425 -0.345869
vn -0.115608 0.993286 -0.004249
vn -0.478549 0.877434 0.033160
vn 0.840343 -0.525915 0.131289
vn 0.651217 -0.605006 -0.458132
vn 0.975499 -0.172915 0.136020
vn 0.801285 -0.228388 -0.552976
vn -0.841884 -0.535399 0.067679
vn -0.447621 -0.585813 0.675617
vn -0.992745 -0.099452 0.067576
vn -0.557509 -0.181808 0.810018
vn 0.487181 0.868576 0.090717
vn 0.285295 0.891677 0.351452
vn 0.919361 0.369706 0.134510
vn 0.636394 0.349674 0.687554
vn -0.478549 0.877434 0.033160
vn -0.301788 0.888425 -0.345869
vn -0.846926 0.528402 0.059221
vn -0.535728 0.450680 -0.714061
vn 0.487181 0.868576 0.090717
vn 0.380058 0.890472 -0.250231
vn -0.115608 0.993286 -0.004249
vn 0.018718 0.878927 -0.476589
vn 0.175100 0.326805 0.928729
vn -0.432188 0.417036 0.799559
vn 0.171618 -0.268288 0.947929
vn -0.557509 -0.181808 0.810018
vn 0.975499 -0.172915 0.136020
vn 0.919361 0.369706 0.134510
vn 0.693265 -0.213668 0.688281
vn 0.636394 0.349674 0.687554
vn 0.136821 0.364608 -0.921054
vn 0.737459 0.377785 -0.559851
vn 0.137789 -0.275311 -0.951429
vn 0.801285 -0.228388 -0.552976
vn -0.992745 -0.099452 0.067576
vn -0.846926 0.528402 0.059221
vn -0.662628 -0.183786 -0.726049
vn -0.535728 0.450680 -0.714061
vn 0.693265 -0.213668 0.688281
vn 0.636394 0.349674 0.687554
vn 0.171618 -0.268288 0.947929
vn 0.175100 0.326805 0.928729
vn -0.662628 -0.183786 -0.726049
vn -0.535728 0.450680 -0.714061
vn 0.137789 -0.275311 -0.951429
vn 0.136821 0.364608 -0.921054
vn 0.737459 0.377785 -0.559851
vn 0.919361 0.369706 0.134510
vn 0.801285 -0.228388 -0.552976
vn 0.975499 -0.172915 0.136020
vn -0.432188 0.417036 0.799559
vn -0.846926 0.528402 0.059221
vn -0.557509 -0.181808 0.810018
vn -0.992745 -0.099452 0.067576
s 1
g Rock02
usemtl Rock02SG
f 15/2/1 25/3/2 5/1/3
f 5/1/3 25/3/2 22/4/4
s 2
f 14/6/5 30/7/6 1/5/7
f 1/5/7 30/7/6 29/8/8
s 3
f 20/10/9 32/11/10 2/9/11
f 2/9/11 32/11/10 26/12/12
s 4
f 13/14/13 31/15/14 4/13/15
f 4/13/15 31/15/14 27/16/16
s 5
f 19/18/17 33/19/18 3/17/19
f 3/17/19 33/19/18 28/20/20
s 6
f 9/21/21 6/22/22 17/23/23
f 17/23/23 6/22/22 15/2/24
s 7
f 11/24/25 8/25/26 23/27/27
f 23/27/27 8/25/26 21/26/28
s 8
f 12/28/29 7/29/30 18/31/31
f 18/31/31 7/29/30 16/30/32
s 9
f 5/1/33 22/4/34 10/32/35
f 10/32/35 22/4/34 24/33/36
s 10
f 15/2/37 6/22/38 25/3/39
f 25/3/39 6/22/38 21/26/40
s 11
f 14/6/41 2/9/42 30/7/43
f 30/7/43 2/9/42 26/12/44
s 12
f 13/14/45 3/17/46 31/15/47
f 31/15/47 3/17/46 28/20/48
s 13
f 15/2/49 5/1/50 17/23/51
f 17/23/51 5/1/50 10/32/52
s 14
f 8/25/53 11/24/54 16/30/55
f 16/30/55 11/24/54 18/31/56
s 15
f 16/30/57 7/29/58 25/3/59
f 25/3/59 7/29/58 22/4/60
s 16
f 20/10/61 4/13/62 32/11/63
f 32/11/63 4/13/62 27/16/64
s 17
f 19/18/65 1/5/66 33/19/67
f 33/19/67 1/5/66 29/8/68
s 18
f 21/26/69 6/22/70 23/27/71
f 23/27/71 6/22/70 9/21/72
s 19
f 22/4/73 7/29/74 24/33/75
f 24/33/75 7/29/74 12/28/76
s 20
f 21/26/77 8/25/78 25/3/79
f 25/3/79 8/25/78 16/30/80
s 21
f 17/23/81 10/32/82 30/7/83
f 30/7/83 10/32/82 29/8/84
s 22
f 32/11/85 23/27/86 26/12/87
f 26/12/87 23/27/86 9/21/88
s 23
f 18/31/89 11/24/90 31/15/91
f 31/15/91 11/24/90 27/16/92
s 24
f 33/19/93 24/33/94 28/20/95
f 28/20/95 24/33/94 12/28/96
s 25
f 26/12/97 9/21/98 30/7/99
f 30/7/99 9/21/98 17/23/100
s 26
f 28/20/101 12/28/102 31/15/103
f 31/15/103 12/28/102 18/31/104
s 27
f 11/24/105 23/27/106 27/16/107
f 27/16/107 23/27/106 32/11/108
s 28
f 10/32/109 24/33/110 29/8/111
f 29/8/111 24/33/110 33/19/112
g default
v -1.312265 -0.000000 0.980735
v 0.718931 -0.000000 0.726467
v -1.476429 -0.000000 -0.999288
v 0.942686 -0.000000 -0.751976
v -0.849250 1.358359 0.788786
v 0.369739 1.534711 0.497978
v -0.909762 1.358359 -0.734533
v 0.565357 1.534711 -0.451331
v 0.678905 0.937081 0.836378
v -1.127547 0.937081 1.127547
v 0.935132 0.937081 -0.856624
v -1.315536 0.937081 -1.139827
v -0.066967 -0.000000 -1.175939
v -0.031786 -0.000000 0.980735
v -0.114794 1.437718 0.722254
v -0.155081 1.437718 -0.936822
v 0.000000 0.937081 1.127547
v -0.040287 0.937081 -1.342115
v -1.794401 -0.000000 -0.003915
v 1.013759 -0.000000 -0.003915
v 0.646744 1.534711 0.000000
v -1.273879 1.358359 -0.000000
v 1.016519 0.937081 0.000000
v -1.679652 0.937081 0.000000
v -0.114794 1.437718 -0.000000
v 0.816282 0.224899 0.836378
v 1.072510 0.224899 -0.856624
v -1.572995 0.224899 -1.139827
v -1.385006 0.224899 1.127547
v 0.000000 0.224899 1.127547
v -0.040287 0.224899 -1.342115
v 1.153897 0.224899 0.000000
v -1.937111 0.224899 0.000000
vt 0.607916 0.666533
vt 0.694646 0.647824
vt 0.719061 0.728330
vt 0.578189 0.777272
vt 0.458438 0.599054
vt 0.678760 0.476420
vt 0.685271 0.500786
vt 0.489410 0.610043
vt 0.846102 0.495110
vt 0.964907 0.613312
vt 0.945272 0.624484
vt 0.833020 0.516369
vt 0.989812 0.776863
vt 0.859331 0.956925
vt 0.843130 0.932306
vt 0.965762 0.773276
vt 0.583240 0.985228
vt 0.429427 0.827254
vt 0.458461 0.818151
vt 0.596545 0.964518
vt 0.789020 0.580609
vt 0.753053 0.662264
vt 0.697043 0.575926
vt 0.896410 0.765560
vt 0.807844 0.731508
vt 0.803332 0.691510
vt 0.875683 0.658165
vt 0.637988 0.909277
vt 0.665944 0.837320
vt 0.765251 0.832014
vt 0.808182 0.878504
vt 0.557044 0.629157
vt 0.524919 0.796017
vn 0.033192 0.883424 0.467398
vn -0.115608 0.993286 -0.004249
vn -0.258770 0.857869 0.443959
vn -0.478549 0.877434 0.033160
vn 0.137924 -0.546368 0.826111
vn 0.171618 -0.268288 0.947929
vn -0.447621 -0.585813 0.675617
vn -0.557509 -0.181808 0.810018
vn 0.840343 -0.525915 0.131289
vn 0.975499 -0.172915 0.136020
vn 0.578903 -0.555519 0.596884
vn 0.693265 -0.213668 0.688281
vn 0.110597 -0.583605 -0.804471
vn 0.137789 -0.275311 -0.951429
vn 0.651217 -0.605006 -0.458132
vn 0.801285 -0.228388 -0.552976
vn -0.841884 -0.535399 0.067679
vn -0.992745 -0.099452 0.067576
vn -0.526966 -0.607388 -0.594464
vn -0.662628 -0.183786 -0.726049
vn 0.636394 0.349674 0.687554
vn 0.285295 0.891677 0.351452
vn 0.175100 0.326805 0.928729
vn 0.033192 0.883424 0.467398
vn 0.737459 0.377785 -0.559851
vn 0.380058 0.890472 -0.250231
vn 0.919361 0.369706 0.134510
vn 0.487181 0.868576 0.090717
vn -0.535728 0.450680 -0.714061
vn -0.301788 0.888425 -0.345869
vn 0.136821 0.364608 -0.921054
vn 0.018718 0.878927 -0.476589
vn -0.258770 0.857869 0.443959
vn -0.478549 0.877434 0.033160
vn -0.432188 0.417036 0.799559
vn -0.846926 0.528402 0.059221
vn 0.033192 0.883424 0.467398
vn 0.285295 0.891677 0.351452
vn -0.115608 0.993286 -0.004249
vn 0.487181 0.868576 0.090717
vn 0.137924 -0.546368 0.826111
vn 0.578903 -0.555519 0.596884
vn 0.171618 -0.268288 0.947929
vn 0.693265 -0.213668 0.688281
vn 0.110597 -0.583605 -0.804471
vn -0.526966 -0.607388 -0.594464
vn 0.137789 -0.275311 -0.951429
vn -0.662628 -0.183786 -0.726049
vn 0.033192 0.883424 0.467398
vn -0.258770 0.857869 0.443959
vn 0.175100 0.326805 0.928729
vn -0.432188 0.417036 0.799559
vn 0.380058 0.890472 -0.250231
vn 0.737459 0.377785 -0.559851
vn 0.018718 0.878927 -0.476589
vn 0.136821 0.364608 -0.921054
vn 0.018718 0.878927 -0.476589
vn -0.301788 0.888425 -0.345869
vn -0.115608 0.993286 -0.004249
vn -0.478549 0.877434 0.033160
vn 0.840343 -0.525915 0.131289
vn 0.651217 -0.605006 -0.458132
vn 0.975499 -0.172915 0.136020
vn 0.801285 -0.228388 -0.552976
vn -0.841884 -0.535399 0.067679
vn -0.447621 -0.585813 0.675617
vn -0.992745 -0.099452 0.067576
vn -0.557509 -0.181808 0.810018
vn 0.487181 0.868576 0.090717
vn 0.285295 0.891677 0.351452
vn 0.919361 0.369706 0.134510
vn 0.636394 0.349674 0.687554
vn -0.478549 0.877434 0.033160
vn -0.301788 0.888425 -0.345869
vn -0.846926 0.528402 0.059221
vn -0.535728 0.450680 -0.714061
vn 0.487181 0.868576 0.090717
vn 0.380058 0.890472 -0.250231
vn -0.115608 0.993286 -0.004249
vn 0.018718 0.878927 -0.476589
vn 0.175100 0.326805 0.928729
vn -0.432188 0.417036 0.799559
vn 0.171618 -0.268288 0.947929
vn -0.557509 -0.181808 0.810018
vn 0.975499 -0.172915 0.136020
vn 0.919361 0.369706 0.134510
vn 0.693265 -0.213668 0.688281
vn 0.636394 0.349674 0.687554
vn 0.136821 0.364608 -0.921054
vn 0.737459 0.377785 -0.559851
vn 0.137789 -0.275311 -0.951429
vn 0.801285 -0.228388 -0.552976
vn -0.992745 -0.099452 0.067576
vn -0.846926 0.528402 0.059221
vn -0.662628 -0.183786 -0.726049
vn -0.535728 0.450680 -0.714061
vn 0.693265 -0.213668 0.688281
vn 0.636394 0.349674 0.687554
vn 0.171618 -0.268288 0.947929
vn 0.175100 0.326805 0.928729
vn -0.662628 -0.183786 -0.726049
vn -0.535728 0.450680 -0.714061
vn 0.137789 -0.275311 -0.951429
vn 0.136821 0.364608 -0.921054
vn 0.737459 0.377785 -0.559851
vn 0.919361 0.369706 0.134510
vn 0.801285 -0.228388 -0.552976
vn 0.975499 -0.172915 0.136020
vn -0.432188 0.417036 0.799559
vn -0.846926 0.528402 0.059221
vn -0.557509 -0.181808 0.810018
vn -0.992745 -0.099452 0.067576
s 1
g Rock02
f 48/35/113 58/36/114 38/34/115
f 38/34/115 58/36/114 55/37/116
s 2
f 47/39/117 63/40/118 34/38/119
f 34/38/119 63/40/118 62/41/120
s 3
f 53/43/121 65/44/122 35/42/123
f 35/42/123 65/44/122 59/45/124
s 4
f 46/47/125 64/48/126 37/46/127
f 37/46/127 64/48/126 60/49/128
s 5
f 52/51/129 66/52/130 36/50/131
f 36/50/131 66/52/130 61/53/132
s 6
f 42/54/133 39/55/134 50/56/135
f 50/56/135 39/55/134 48/35/136
s 7
f 44/57/137 41/58/138 56/60/139
f 56/60/139 41/58/138 54/59/140
s 8
f 45/61/141 40/62/142 51/64/143
f 51/64/143 40/62/142 49/63/144
s 9
f 38/34/145 55/37/146 43/65/147
f 43/65/147 55/37/146 57/66/148
s 10
f 48/35/149 39/55/150 58/36/151
f 58/36/151 39/55/150 54/59/152
s 11
f 47/39/153 35/42/154 63/40/155
f 63/40/155 35/42/154 59/45/156
s 12
f 46/47/157 36/50/158 64/48/159
f 64/48/159 36/50/158 61/53/160
s 13
f 48/35/161 38/34/162 50/56/163
f 50/56/163 38/34/162 43/65/164
s 14
f 41/58/165 44/57/166 49/63/167
f 49/63/167 44/57/166 51/64/168
s 15
f 49/63/169 40/62/170 58/36/171
f 58/36/171 40/62/170 55/37/172
s 16
f 53/43/173 37/46/174 65/44/175
f 65/44/175 37/46/174 60/49/176
s 17
f 52/51/177 34/38/178 66/52/179
f 66/52/179 34/38/178 62/41/180
s 18
f 54/59/181 39/55/182 56/60/183
f 56/60/183 39/55/182 42/54/184
s 19
f 55/37/185 40/62/186 57/66/187
f 57/66/187 40/62/186 45/61/188
s 20
f 54/59/189 41/58/190 58/36/191
f 58/36/191 41/58/190 49/63/192
s 21
f 50/56/193 43/65/194 63/40/195
f 63/40/195 43/65/194 62/41/196
s 22
f 65/44/197 56/60/198 59/45/199
f 59/45/199 56/60/198 42/54/200
s 23
f 51/64/201 44/57/202 64/48/203
f 64/48/203 44/57/202 60/49/204
s 24
f 66/52/205 57/66/206 61/53/207
f 61/53/207 57/66/206 45/61/208
s 25
f 59/45/209 42/54/210 63/40/211
f 63/40/211 42/54/210 50/56/212
s 26
f 61/53/213 45/61/214 64/48/215
f 64/48/215 45/61/214 51/64/216
s 27
f 44/57/217 56/60/218 60/49/219
f 60/49/219 56/60/218 65/44/220
s 28
f 43/65/221 57/66/222 62/41/223
f 62/41/223 57/66/222 66/52/224
