# This file uses centimeters as units for non-parametric coordinates.

mtllib Agua.mtl
g default
v -13.113045 0.000000 13.113045
v 13.113045 0.000000 13.113045
v -13.113045 0.000000 -13.113045
v 13.113045 0.000000 -13.113045
vt 0.000000 0.000000
vt 1.000000 0.000000
vt 0.000000 1.000000
vt 1.000000 1.000000
vn 0.000000 1.000000 0.000000
vn 0.000000 1.000000 0.000000
vn 0.000000 1.000000 0.000000
vn 0.000000 1.000000 0.000000
s 1
g pPlane1
usemtl initialShadingGroup
f 1/1/1 2/2/2 3/3/3
f 3/3/3 2/2/2 4/4/4
